# xmcd
#
# Track frame offsets:
#	150
#	16285
#	34253
#	50012
#	64023
#	82847
#	101536
#	117276
#	132295
#	150142
#	165544
#	179746
#	192924
#	214599
#
# Disc length: 3092 seconds
#
# Revision: 0
# Processed by: cddbd v1.5PL3 Copyright (c) Steve Scherf et al.
# Submitted via: dBpowerAMP V4.0
#
DISCID=b20c120e
DTITLE=Chiquito e Bordoneio - Cada Vez Melhor
DYEAR=2003
DGENRE=Country
TTITLE0=Do Tamanho do Brasil
TTITLE1=Pra Bailar de Cola Atada
TTITLE2=Remelexo
TTITLE3=Morena do Baile
TTITLE4=Na Paz do Campo
TTITLE5=Mais Que a Minha Vida
TTITLE6=Do Meu Jeitão Bem Bagual
TTITLE7=Balanço de Vanera
TTITLE8=Frente a Frente
TTITLE9=Pra Você Ficar Comigo
TTITLE10=Versos pra Um Tropeiro
TTITLE11=Essa Moda Vai Pegá
TTITLE12=Eternamente Você
TTITLE13=Pra Quem Veio Vanerá
EXTD=
EXTT0=
EXTT1=
EXTT2=
EXTT3=
EXTT4=
EXTT5=
EXTT6=
EXTT7=
EXTT8=
EXTT9=
EXTT10=
EXTT11=
EXTT12=
EXTT13=
PLAYORDER=
